<svg width="32" height="32" viewBox="0 0 32 32" xmlns="http://www.w3.org/2000/svg">
  <path d="M16 0C7.164 0 0 7.164 0 16c0 7.07 4.584 13.066 10.94 15.18.8.15 1.092-.35 1.092-.77 0-.38-.015-1.65-.022-2.97-4.45.967-5.39-1.85-5.39-1.85-.73-1.85-1.78-2.34-1.78-2.34-1.45-.99.11-.97.11-.97 1.61.11 2.46 1.65 2.46 1.65 1.43 2.45 3.75 1.74 4.66 1.33.14-1.03.56-1.74 1.02-2.14-3.55-.4-7.29-1.78-7.29-7.91 0-1.75.62-3.18 1.65-4.3-.17-.4-.72-2.02.15-4.22 0 0 1.34-.43 4.4 1.64 1.28-.36 2.64-.54 4-.54 1.36 0 2.72.18 4 .54 3.06-2.07 4.4-1.64 4.4-1.64.87 2.2.32 3.82.15 4.22 1.03 1.12 1.65 2.55 1.65 4.3 0 6.15-3.74 7.5-7.3 7.9.57.49 1.08 1.46 1.08 2.94 0 2.12-.02 3.83-.02 4.35 0 .42.29.93 1.1.77C27.416 29.066 32 23.07 32 16c0-8.836-7.164-16-16-16z" fill="#000000"/>
</svg>
